#!OML:ASF X:\für Bonn\!DataBase\2005_08_12_Daniel\c3d\Daniel.ASF
:FULLY-SPECIFIED
:DEGREES
153
root -0.949424 16.922 0.222644 -13.9455 -76.0281 4.11993
lowerback 7.45635 1.3427 0.557926
upperback -7.58269 1.34569 -3.6122
thorax -12.3263 0.32269 -4.49164
lowerneck 3.63526 -5.76089 -5.42697
upperneck 7.84847 -7.89157 -0.97628
head 2.03434 -4.16574 0.527889
rclavicle 7.95139e-016 2.22639e-014
rhumerus -113.144 -172.517 113.952
rradius 76.8915
rwrist 32.9075
rhand -64.504 269.64
rfingers 7.12502
rthumb -36.4283 64.1503
lclavicle 7.95139e-016 2.22639e-014
lhumerus -112.524 210.274 -114.01
lradius 78.9119
lwrist 12.2531
lhand -36.7985 349.634
lfingers 7.12502
lthumb -9.88025 19.3824
rfemur 8.70323 -7.33494 10.8562
rtibia 35.3985
rfoot -26.649 -11.0545
rtoes -7.74426
lfemur -9.07852 -13.8975 -17.5917
ltibia 47.8074
lfoot -19.41 -9.65402
ltoes 5.0593
154
root -0.96219 17.0519 0.215628 -14.6081 -76.1821 5.24288
lowerback 7.20757 1.46129 0.310158
upperback -7.85288 1.43932 -3.74643
thorax -12.4812 0.368892 -4.51703
lowerneck 3.62487 -5.752 -5.39823
upperneck 8.00449 -7.88788 -0.837023
head 2.09258 -4.16527 0.563412
rclavicle 4.05521e-014 -7.15625e-015
rhumerus -111.988 -172.389 113.272
rradius 73.0699
rwrist 33.0328
rhand -64.3972 269.979
rfingers 7.12502
rthumb -36.3271 63.7856
lclavicle 4.05521e-014 -7.15625e-015
lhumerus -112.821 210.158 -113.49
lradius 78.3135
lwrist 12.7939
lhand -36.0644 351.006
lfingers 7.12502
lthumb -9.17199 20.7868
rfemur 8.91835 -5.22498 11.7445
rtibia 33.8625
rfoot -26.6448 -13.1163
rtoes -7.26904
lfemur -8.96035 -14.359 -17.8704
ltibia 46.7005
lfoot -18.0982 -8.57879
ltoes 4.8282
155
root -0.968423 17.173 0.209863 -15.2497 -76.351 6.32741
lowerback 7.02452 1.58186 0.129322
upperback -8.11162 1.54174 -3.90094
thorax -12.6623 0.411571 -4.60727
lowerneck 3.66606 -5.76019 -5.27093
upperneck 8.10139 -7.90529 -0.760888
head 2.11524 -4.1721 0.56563
rclavicle 2.66371e-014 1.90833e-014
rhumerus -110.678 -172.277 112.365
rradius 68.8742
rwrist 33.4644
rhand -64.3458 448.464
rfingers 7.12502
rthumb -36.2785 62.2164
lclavicle 2.66371e-014 1.90833e-014
lhumerus -113.167 210.071 -112.948
lradius 77.7896
lwrist 13.4605
lhand -35.2056 352.337
lfingers 7.12502
lthumb -8.34324 22.1527
rfemur 9.05406 -2.88066 12.6839
rtibia 32.5254
rfoot -26.9335 -15.2743
rtoes -6.72603
lfemur -8.88741 -14.7683 -18.108
ltibia 45.6406
lfoot -16.6325 -7.58832
ltoes 4.78142
156
root -0.972028 17.2843 0.204209 -15.9648 -76.5423 7.47583
lowerback 6.87275 1.69858 -0.0435328
upperback -8.37067 1.63834 -4.05783
thorax -12.8646 0.44976 -4.70598
lowerneck 3.7644 -5.74825 -5.14716
upperneck 8.19886 -7.90353 -0.632607
head 2.13034 -4.16881 0.586861
rclavicle -2.22639e-014 -7.95139e-015
rhumerus -109.24 -172.211 111.305
rradius 64.3756
rwrist 34.1788
rhand -64.4297 445.463
rfingers 7.12502
rthumb -36.3579 59.2352
lclavicle -2.22639e-014 -7.95139e-015
lhumerus -113.67 209.973 -112.352
lradius 77.3294
lwrist 14.147
lhand -34.2607 353.574
lfingers 7.12502
lthumb -7.43121 23.4234
rfemur 9.12063 -0.376456 13.6135
rtibia 31.379
rfoot -27.3723 -17.4489
rtoes -6.21149
lfemur -8.84652 -15.1331 -18.3358
ltibia 44.6483
lfoot -15.0633 -6.62831
ltoes 4.93517
